<svg width="58" height="58" viewBox="0 0 58 58" fill="none" xmlns="http://www.w3.org/2000/svg">
<path d="M58 29.0001C58 21.3088 54.9446 13.9325 49.5061 8.49395C44.0675 3.05537 36.6913 0 29 0C21.3103 0.00525432 13.9371 3.06231 8.4997 8.49974C3.06229 13.9372 0.0052543 21.3104 0 29.0001C0.000530004 35.9072 2.4663 42.5873 6.95356 47.8382C11.4408 53.0891 17.6549 56.566 24.4774 57.6432V37.3907H17.0985V29.0001H24.4774V22.6328C24.4774 15.353 28.8016 11.3461 35.4268 11.3461C37.6002 11.3767 39.7683 11.569 41.9131 11.9214V19.0425H38.2633C37.6392 18.9591 37.0043 19.0177 36.4059 19.2137C35.8075 19.4098 35.261 19.7384 34.8073 20.175C34.3535 20.6116 34.0041 21.145 33.7851 21.7354C33.5661 22.3258 33.4831 22.958 33.5424 23.5849V29.02H41.4767L40.1874 37.4105H33.4432V57.663C40.2854 56.6063 46.5231 53.135 51.0275 47.8774C55.5319 42.6198 58.0053 35.9234 58 29.0001V29.0001Z" fill="url(#paint0_linear_54_201)"/>
<path d="M40.2872 37.3902L41.5765 28.9997H33.6422V23.5646C33.5829 22.9377 33.6659 22.3055 33.8849 21.7151C34.1039 21.1247 34.4533 20.5914 34.907 20.1547C35.3608 19.7181 35.9072 19.3895 36.5056 19.1934C37.104 18.9974 37.7389 18.9388 38.3631 19.0222H41.9336V11.9011C39.7887 11.5487 37.6206 11.3564 35.4473 11.3259C28.8221 11.3259 24.4979 15.293 24.4979 22.6125V28.9997H17.0991V37.3902H24.478V57.6427C25.9735 57.883 27.4859 58.0024 29.0006 57.9998C30.5218 58.0016 32.0407 57.8822 33.543 57.6427V37.3902H40.2872Z" fill="white"/>
<defs>
<linearGradient id="paint0_linear_54_201" x1="8.48974" y1="8.48977" x2="49.5104" y2="49.5103" gradientUnits="userSpaceOnUse">
<stop stop-color="#4676ED"/>
<stop offset="0.19" stop-color="#436DE4"/>
<stop offset="0.49" stop-color="#3C55CD"/>
<stop offset="0.87" stop-color="#302EA8"/>
<stop offset="1" stop-color="#2B1E99"/>
</linearGradient>
</defs>
</svg>
