<svg width="59" height="59" viewBox="0 0 59 59" fill="none" xmlns="http://www.w3.org/2000/svg">
<path d="M29.5 59C45.7924 59 59 45.7924 59 29.5C59 13.2076 45.7924 0 29.5 0C13.2076 0 0 13.2076 0 29.5C0 45.7924 13.2076 59 29.5 59Z" fill="url(#paint0_linear_16_187)"/>
<path d="M45.2149 25.2813C45.2149 23.4022 44.4766 21.6001 43.1626 20.2714C41.8485 18.9427 40.0662 18.1963 38.2078 18.1963H20.2408C18.3824 18.1963 16.6001 18.9427 15.286 20.2714C13.9719 21.6001 13.2336 23.4022 13.2336 25.2813V33.7187C13.2336 35.5978 13.9719 37.3999 15.286 38.7286C16.6001 40.0573 18.3824 40.8038 20.2408 40.8038H38.2078C40.0662 40.8038 41.8485 40.0573 43.1626 38.7286C44.4766 37.3999 45.2149 35.5978 45.2149 33.7187V25.2813ZM34.5944 30.1258L26.6091 34.1628C26.3096 34.3243 25.2316 34.1628 25.2316 33.7389V25.4832C25.2316 25.1198 26.3097 24.8776 26.6291 25.0593L34.3149 29.2982C34.5944 29.4798 34.9937 29.9441 34.5944 30.1258Z" fill="white"/>
<defs>
<linearGradient id="paint0_linear_16_187" x1="50.3639" y1="8.63612" x2="8.63612" y2="50.3639" gradientUnits="userSpaceOnUse">
<stop stop-color="#FF0000"/>
<stop offset="1" stop-color="#850000"/>
</linearGradient>
</defs>
</svg>
