<svg width="63" height="63" viewBox="0 0 63 63" fill="none" xmlns="http://www.w3.org/2000/svg">
<path d="M63 31.5001C63 23.1458 59.6813 15.1336 53.7739 9.22618C47.8665 3.31876 39.8543 0 31.5 0C23.1474 0.00570728 15.1386 3.3263 9.23244 9.23248C3.32628 15.1387 0.00570726 23.1475 0 31.5001C0.000575694 39.0026 2.67892 46.2586 7.55301 51.9622C12.4271 57.6658 19.1769 61.4424 26.5875 62.6124V40.614H18.5725V31.5001H26.5875V24.5839C26.5875 16.6765 31.2845 12.3243 38.4809 12.3243C40.8416 12.3574 43.1966 12.5663 45.5263 12.9491V20.6841H41.5619C40.8839 20.5935 40.1943 20.6571 39.5443 20.8701C38.8943 21.0831 38.3008 21.44 37.8079 21.9143C37.315 22.3885 36.9355 22.9679 36.6976 23.6092C36.4597 24.2504 36.3696 24.9371 36.434 25.6181V31.5217H45.0523L43.6519 40.6356H36.3263V62.634C43.7582 61.4861 50.5337 57.7156 55.4264 52.0048C60.3191 46.294 63.0058 39.0202 63 31.5001Z" fill="url(#paint0_linear_4_245)"/>
<path d="M43.7603 40.6137L45.1607 31.4998H36.5424V25.5963C36.478 24.9153 36.5681 24.2286 36.806 23.5873C37.0439 22.946 37.4234 22.3667 37.9163 21.8924C38.4092 21.4182 39.0027 21.0612 39.6527 20.8483C40.3027 20.6353 40.9923 20.5717 41.6703 20.6622H45.5486V12.9272C43.2188 12.5444 40.8638 12.3356 38.5031 12.3024C31.3068 12.3024 26.6098 16.6116 26.6098 24.562V31.4998H18.5732V40.6137H26.5882V62.6121C28.2126 62.8731 29.8554 63.0028 31.5007 63C33.153 63.0019 34.8029 62.8722 36.4347 62.6121V40.6137H43.7603Z" fill="white"/>
<defs>
<linearGradient id="paint0_linear_4_245" x1="9.22161" y1="9.22165" x2="53.7786" y2="53.7784" gradientUnits="userSpaceOnUse">
<stop stop-color="#4676ED"/>
<stop offset="0.19" stop-color="#436DE4"/>
<stop offset="0.49" stop-color="#3C55CD"/>
<stop offset="0.87" stop-color="#302EA8"/>
<stop offset="1" stop-color="#2B1E99"/>
</linearGradient>
</defs>
</svg>
