<svg width="63" height="63" viewBox="0 0 63 63" fill="none" xmlns="http://www.w3.org/2000/svg">
<path d="M31.5 -2.75382e-06C14.103 -4.27471e-06 -3.35469e-06 14.103 -4.87558e-06 31.5C-6.39647e-06 48.897 14.103 63 31.5 63C48.897 63 63 48.897 63 31.5C63 14.103 48.897 -1.23293e-06 31.5 -2.75382e-06Z" fill="url(#paint0_linear_4_238)"/>
<path d="M31.5108 40.6262C33.9266 40.6205 36.2418 39.6583 37.9501 37.95C39.6583 36.2418 40.6205 33.9266 40.6262 31.5108C40.6205 29.093 39.659 26.7755 37.9514 25.0639C36.2438 23.3522 33.9286 22.3852 31.5108 22.3738C29.0893 22.3795 26.7686 23.344 25.0563 25.0563C23.344 26.7686 22.3795 29.0893 22.3738 31.5108C22.3852 33.9286 23.3522 36.2437 25.0639 37.9514C26.7756 39.659 29.093 40.6205 31.5108 40.6262ZM31.5108 25.6571C33.0596 25.6628 34.5429 26.2821 35.6361 27.3792C36.7292 28.4764 37.3429 29.962 37.3429 31.5108C37.3429 33.0576 36.7285 34.541 35.6347 35.6347C34.541 36.7284 33.0576 37.3429 31.5108 37.3429C30.7431 37.3457 29.9824 37.197 29.2723 36.9052C28.5622 36.6134 27.9168 36.1842 27.3729 35.6424C26.8291 35.1005 26.3975 34.4566 26.1031 33.7476C25.8087 33.0386 25.6571 32.2785 25.6571 31.5108C25.6571 29.9583 26.2738 28.4694 27.3716 27.3716C28.4694 26.2738 29.9583 25.6571 31.5108 25.6571Z" fill="white"/>
<path d="M24.0921 12.9533L38.9079 12.9533C41.8583 12.9533 44.6883 14.1245 46.7766 16.21C48.8649 18.2955 50.041 21.1248 50.0467 24.077L50.0467 38.9014C50.041 41.8555 48.8656 44.6871 46.7779 46.776C44.6902 48.8649 41.8603 50.041 38.9079 50.0467L24.0921 50.0467C21.1397 50.041 18.3098 48.8649 16.2221 46.776C14.1344 44.6871 12.959 41.8555 12.9533 38.9014L12.9533 24.077C12.959 21.1248 14.1351 18.2955 16.2234 16.21C18.3117 14.1245 21.1417 12.9533 24.0921 12.9533ZM38.9079 46.5624C40.9348 46.5567 42.8767 45.7471 44.3079 44.3109C45.7392 42.8748 46.5429 40.9295 46.5429 38.9014L46.5429 24.077C46.5429 22.0509 45.7385 20.1078 44.3066 18.6751C42.8748 17.2424 40.9328 16.4375 38.9079 16.4375L24.0921 16.4375C23.0895 16.4375 22.0967 16.6351 21.1703 17.0191C20.244 17.403 19.4024 17.9657 18.6934 18.6751C17.9844 19.3845 17.422 20.2266 17.0383 21.1535C16.6546 22.0803 16.4571 23.0737 16.4571 24.077L16.4571 38.9014C16.4571 40.9295 17.2608 42.8748 18.6921 44.3109C20.1233 45.747 22.0652 46.5567 24.0921 46.5624L38.9079 46.5624Z" fill="white"/>
<defs>
<linearGradient id="paint0_linear_4_238" x1="9.22161" y1="53.7784" x2="53.7784" y2="9.22161" gradientUnits="userSpaceOnUse">
<stop stop-color="#FBE18A"/>
<stop offset="0.21" stop-color="#FCBB45"/>
<stop offset="0.38" stop-color="#F75274"/>
<stop offset="0.52" stop-color="#D53692"/>
<stop offset="0.74" stop-color="#8F39CE"/>
<stop offset="1" stop-color="#5B4FE9"/>
</linearGradient>
</defs>
</svg>
