<svg width="59" height="59" viewBox="0 0 59 59" fill="none" xmlns="http://www.w3.org/2000/svg">
<path d="M29.5 5.05042e-06C13.2076 3.6261e-06 -3.6261e-06 13.2076 -5.05042e-06 29.5C-6.47475e-06 45.7924 13.2076 59 29.5 59C45.7924 59 59 45.7924 59 29.5C59 13.2076 45.7924 6.47475e-06 29.5 5.05042e-06Z" fill="url(#paint0_linear_16_183)"/>
<path d="M29.5101 38.0468C31.7725 38.0414 33.9407 37.1403 35.5405 35.5405C37.1403 33.9408 38.0414 31.7725 38.0467 29.5101C38.0414 27.2459 37.141 25.0755 35.5418 23.4725C33.9426 21.8696 31.7744 20.964 29.5101 20.9533C27.2423 20.9586 25.069 21.8619 23.4654 23.4654C21.8618 25.069 20.9586 27.2424 20.9533 29.5101C20.9639 31.7744 21.8695 33.9426 23.4725 35.5418C25.0755 37.141 27.2458 38.0414 29.5101 38.0468V38.0468ZM29.5101 24.0281C30.9605 24.0334 32.3497 24.6134 33.3734 25.6409C34.3972 26.6684 34.9719 28.0597 34.9719 29.5101C34.9719 30.9587 34.3965 32.3479 33.3722 33.3722C32.3479 34.3965 30.9587 34.9719 29.5101 34.9719C28.7912 34.9746 28.0787 34.8353 27.4137 34.562C26.7488 34.2887 26.1443 33.8868 25.6349 33.3794C25.1256 32.8719 24.7215 32.2689 24.4458 31.605C24.17 30.941 24.0281 30.2291 24.0281 29.5101C24.0281 28.0562 24.6056 26.6618 25.6337 25.6337C26.6618 24.6057 28.0562 24.0281 29.5101 24.0281V24.0281Z" fill="white"/>
<path d="M22.5625 12.1309L36.4375 12.1309C39.2007 12.1309 41.8509 13.2278 43.8067 15.1809C45.7624 17.1339 46.8638 19.7836 46.8692 22.5483L46.8692 36.4315C46.8638 39.1981 45.7631 41.8499 43.8079 43.8061C41.8528 45.7624 39.2025 46.8638 36.4375 46.8692L22.5625 46.8692C19.7975 46.8638 17.1472 45.7624 15.1921 43.8061C13.237 41.8499 12.1362 39.1981 12.1308 36.4315L12.1308 22.5483C12.1362 19.7836 13.2376 17.1339 15.1934 15.1809C17.1491 13.2278 19.7993 12.1309 22.5625 12.1309V12.1309ZM36.4375 43.6061C38.3358 43.6008 40.1544 42.8425 41.4947 41.4976C42.8351 40.1527 43.5878 38.3308 43.5878 36.4315L43.5878 22.5483C43.5878 20.6509 42.8344 18.8311 41.4935 17.4894C40.1526 16.1477 38.3339 15.3939 36.4375 15.3939L22.5625 15.3939C21.6235 15.3939 20.6937 15.579 19.8262 15.9385C18.9587 16.2981 18.1705 16.8251 17.5065 17.4894C16.8425 18.1538 16.3159 18.9425 15.9565 19.8105C15.5972 20.6785 15.4122 21.6088 15.4122 22.5483L15.4122 36.4315C15.4122 38.3308 16.1649 40.1527 17.5053 41.4976C18.8456 42.8425 20.6643 43.6008 22.5625 43.6061L36.4375 43.6061Z" fill="white"/>
<defs>
<linearGradient id="paint0_linear_16_183" x1="8.63611" y1="50.3639" x2="50.3639" y2="8.63611" gradientUnits="userSpaceOnUse">
<stop stop-color="#FBE18A"/>
<stop offset="0.21" stop-color="#FCBB45"/>
<stop offset="0.38" stop-color="#F75274"/>
<stop offset="0.52" stop-color="#D53692"/>
<stop offset="0.74" stop-color="#8F39CE"/>
<stop offset="1" stop-color="#5B4FE9"/>
</linearGradient>
</defs>
</svg>
