<svg width="127" height="38" viewBox="0 0 127 38" fill="none" xmlns="http://www.w3.org/2000/svg">
<path d="M3.1524 0H9.49498V8.09606H16.1371V14.5404H9.49498V19.7157C9.49498 22.8154 11.9618 25.2214 15.1898 25.2214H16.1371V31.6492H15.1871C8.73117 31.6492 3.1497 26.4987 3.1497 19.7185V14.5404H0V8.09606H3.1524V0Z" fill="black"/>
<path d="M32.1661 28.4334H33.1162V34.8613H32.1661C30.5895 34.8642 29.0279 34.5496 27.5707 33.9355C26.1136 33.3215 24.7896 32.4201 23.6748 31.283C22.56 30.1459 21.6762 28.7956 21.0741 27.3093C20.4721 25.8231 20.1637 24.2303 20.1665 22.6222V19.3684C20.2138 16.1487 21.501 13.0773 23.75 10.8175C25.999 8.55772 29.0294 7.29102 32.1864 7.29102C35.3434 7.29102 38.3737 8.55772 40.6227 10.8175C42.8718 13.0773 44.1589 16.1487 44.2062 19.3684V23.5912H26.5847C26.8146 24.9359 27.4985 26.1562 28.5179 27.0406C29.5373 27.925 30.8279 28.4177 32.1661 28.4334V28.4334ZM32.2039 13.5682C31.0837 13.5723 29.9894 13.9125 29.0574 14.5464C28.1254 15.1803 27.3968 16.0799 26.9625 17.1331H37.4075C36.4953 15.0685 34.5601 13.5572 32.2039 13.5572V13.5682Z" fill="black"/>
<path d="M60.1304 21.2273L69.7387 5.38477L75.2068 8.8313L60.1304 33.7003L45.0513 8.8313L50.5221 5.38477L60.1304 21.2273Z" fill="black"/>
<path d="M88.0324 28.4334H88.9824V34.8613H88.0324C86.4557 34.8642 84.8941 34.5496 83.4369 33.9355C81.9798 33.3215 80.6558 32.4201 79.541 31.283C78.4262 30.1459 77.5424 28.7956 76.9404 27.3093C76.3383 25.8231 76.0299 24.2303 76.0327 22.6222V19.3684C76.08 16.1487 77.3672 13.0773 79.6162 10.8175C81.8652 8.55772 84.8956 7.29102 88.0526 7.29102C91.2096 7.29102 94.2399 8.55772 96.489 10.8175C98.738 13.0773 100.025 16.1487 100.072 19.3684V23.5912H82.4509C82.6808 24.9359 83.3647 26.1562 84.3841 27.0406C85.4035 27.925 86.6941 28.4177 88.0324 28.4334V28.4334ZM88.0728 13.5682C86.9524 13.5716 85.8579 13.9115 84.9257 14.5455C83.9936 15.1794 83.2652 16.0794 82.8314 17.1331H93.2737C92.3642 15.0685 90.4263 13.5572 88.0728 13.5572V13.5682Z" fill="black"/>
<path d="M127 37.9991L111.162 18.5146V30.6793H104.82V0.775391L120.657 20.2599V8.09515H127V37.9991Z" fill="black"/>
</svg>
