<svg width="471" height="139" viewBox="0 0 471 139" fill="none" xmlns="http://www.w3.org/2000/svg">
<path d="M11.68 0H35.18V29.41H59.79V52.82H35.18V71.62C35.18 82.88 44.32 91.62 56.28 91.62H59.79V114.97H56.27C32.35 114.97 11.67 96.26 11.67 71.63V52.82H0V29.41H11.68V0Z" fill="black"/>
<path d="M119.18 103.29H122.7V126.64H119.18C113.339 126.65 107.552 125.508 102.153 123.277C96.7546 121.047 91.8492 117.772 87.7186 113.641C83.588 109.511 80.3135 104.605 78.0829 99.2065C75.8523 93.8076 74.7095 88.0215 74.72 82.1799V70.3599C74.8953 58.6641 79.6645 47.5066 87.9973 39.2977C96.3302 31.0888 107.558 26.4873 119.255 26.4873C130.952 26.4873 142.18 31.0888 150.513 39.2977C158.846 47.5066 163.615 58.6641 163.79 70.3599V85.7H98.5C99.3518 90.5848 101.886 95.0176 105.663 98.2303C109.44 101.443 114.222 103.233 119.18 103.29V103.29ZM119.32 49.2899C115.169 49.3048 111.115 50.5406 107.662 52.8433C104.209 55.1461 101.509 58.414 99.9 62.2399H138.6C135.22 54.7399 128.05 49.2499 119.32 49.2499V49.2899Z" fill="black"/>
<path d="M222.79 77.11L258.39 19.5601L278.65 32.08L222.79 122.42L166.92 32.08L187.19 19.5601L222.79 77.11Z" fill="black"/>
<path d="M326.17 103.29H329.69V126.64H326.17C320.328 126.65 314.542 125.508 309.143 123.277C303.745 121.047 298.839 117.772 294.709 113.641C290.578 109.511 287.303 104.605 285.073 99.2065C282.842 93.8076 281.699 88.0215 281.71 82.1799V70.3599C281.885 58.6641 286.654 47.5066 294.987 39.2977C303.32 31.0888 314.548 26.4873 326.245 26.4873C337.942 26.4873 349.17 31.0888 357.503 39.2977C365.836 47.5066 370.605 58.6641 370.78 70.3599V85.7H305.49C306.342 90.5848 308.876 95.0176 312.653 98.2303C316.43 101.443 321.212 103.233 326.17 103.29V103.29ZM326.32 49.2899C322.169 49.3022 318.113 50.537 314.66 52.84C311.206 55.1431 308.507 58.4124 306.9 62.2399H345.59C342.22 54.7399 335.04 49.2499 326.32 49.2499V49.2899Z" fill="black"/>
<path d="M470.55 138.04L411.87 67.2601V111.45H388.37V2.82007L447.05 73.6001V29.4101H470.55V138.04Z" fill="black"/>
</svg>
