<svg width="63" height="63" viewBox="0 0 63 63" fill="none" xmlns="http://www.w3.org/2000/svg">
<path d="M31.5 63C48.897 63 63 48.897 63 31.5C63 14.103 48.897 0 31.5 0C14.103 0 0 14.103 0 31.5C0 48.897 14.103 63 31.5 63Z" fill="url(#paint0_linear_166_385)"/>
<path d="M48.3697 26.9108C48.3697 24.905 47.5729 22.9815 46.1546 21.5632C44.7364 20.1449 42.8128 19.3482 40.8071 19.3482H21.4159C19.4101 19.3482 17.4866 20.1449 16.0683 21.5632C14.6501 22.9815 13.8532 24.905 13.8532 26.9108V35.9169C13.8532 37.9226 14.6501 39.8462 16.0683 41.2645C17.4866 42.6827 19.4101 43.4795 21.4159 43.4795H40.8071C42.8128 43.4795 44.7364 42.6827 46.1546 41.2645C47.5729 39.8462 48.3697 37.9226 48.3697 35.9169V26.9108ZM36.9073 32.0818L28.289 36.3909C27.9658 36.5633 26.8023 36.3909 26.8023 35.9385V27.1262C26.8023 26.7384 27.9658 26.4798 28.3105 26.6738L36.6056 31.1984C36.9073 31.3923 37.3382 31.8878 36.9073 32.0818Z" fill="white"/>
<defs>
<linearGradient id="paint0_linear_166_385" x1="53.7784" y1="9.22162" x2="9.22162" y2="53.7784" gradientUnits="userSpaceOnUse">
<stop stop-color="#FF0000"/>
<stop offset="1" stop-color="#850000"/>
</linearGradient>
</defs>
</svg>
